<svg width="30" height="30" viewBox="0 0 30 30" fill="none" xmlns="http://www.w3.org/2000/svg">
<path d="M25.6076 25.6078C31.4656 19.7498 31.4656 10.2521 25.6076 4.39414C19.7496 -1.46386 10.2519 -1.46386 4.39395 4.39414C-1.46405 10.2521 -1.46405 19.7498 4.39395 25.6078C10.2519 31.4658 19.7496 31.4658 25.6076 25.6078Z" fill="white"/>
<path fill-rule="evenodd" clip-rule="evenodd" d="M6.07639 14.6294C10.2026 12.8995 15.194 10.4365 19.5203 8.7727C23.5131 7.30903 23.447 7.7053 22.8479 11.7014C22.381 14.8956 21.8473 18.0905 21.3136 21.2847C21.1134 22.8157 20.3129 23.6143 18.6517 22.6823L13.4601 19.0224C12.7263 18.422 12.9264 17.955 13.5269 17.3586L18.3188 12.8328C19.583 11.5653 18.986 11.1023 17.5183 12.099L10.9344 16.5594C10.0004 17.2265 9.00441 17.2265 7.93968 16.893L5.67678 16.0924C4.21311 15.5587 5.34322 14.9583 6.07706 14.6281L6.07639 14.6294Z" fill="#1F252D"/>
</svg>
