<svg width="24" height="22" viewBox="0 0 24 22" fill="none" xmlns="http://www.w3.org/2000/svg">
<path d="M23.84 8.23016L22.2484 7.03656L13.7656 0.589359C12.7412 -0.188641 11.2584 -0.188641 10.2344 0.589359L1.75158 7.03656L0.15998 8.23016C-0.0168198 8.36256 -0.0524198 8.61336 0.0799802 8.78976C0.15838 8.89496 0.27878 8.94976 0.40038 8.94976C0.48358 8.94976 0.56798 8.92376 0.63998 8.86976L1.59998 8.14976V9.43776C1.51078 9.48576 1.42998 9.54176 1.36518 9.60976L1.15518 9.79096C0.78558 9.98776 0.50918 10.3738 0.42838 10.8122C0.38398 11.0518 0.39798 11.3046 0.46918 11.5438C0.50798 11.6754 0.47718 11.8346 0.38598 11.969C-0.0328199 12.5886 -0.11762 13.4518 0.17518 14.1186C0.21958 14.219 0.27438 14.3134 0.33878 14.4006C0.43118 14.5254 0.46398 14.6906 0.42638 14.8434C0.40598 14.9254 0.39198 15.0098 0.38438 15.0926C0.35158 15.4506 0.42518 15.7986 0.48438 16.0782C0.54638 16.3722 0.64038 16.8166 0.97038 17.1002C1.14358 17.2494 1.36118 17.3306 1.60078 17.3442V18.5498H0.53958C0.38798 18.5498 0.24438 18.6158 0.14558 18.7306C0.0463802 18.8454 0.00278017 18.9974 0.0255802 19.1474L0.45598 21.9942H2.73518H3.54398H4.79998H19.6H21.2612C21.8892 21.9942 22.4 21.4834 22.4 20.8554V8.14976L23.36 8.86976C23.432 8.92376 23.5164 8.94976 23.5996 8.94976C23.7212 8.94976 23.8412 8.89456 23.92 8.78976C24.0524 8.61336 24.0168 8.36256 23.84 8.23016ZM5.59998 21.1946V19.9946H18.8V21.1946H5.59998ZM18.8 15.9946V17.1946H5.59998V15.9946H18.8ZM18.8 13.1946H5.59998V11.9946H18.8V13.1946ZM21.2612 21.1946H19.6V9.19456H4.79998V21.1946H3.66518L3.97518 19.145C3.99758 18.9958 3.95398 18.8446 3.85558 18.7302C3.75678 18.6158 3.61398 18.5502 3.46278 18.5502H2.39998V17.1666C2.42238 17.1562 2.44438 17.145 2.46638 17.1338C3.11078 16.801 3.56478 16.2906 3.74478 15.6958C3.86838 15.2882 3.84118 14.8126 3.67278 14.423C3.60998 14.2778 3.59758 14.1246 3.63318 14.0018C3.64558 13.9582 3.66358 13.9182 3.68838 13.8842C3.82478 13.6966 3.94558 13.471 4.04718 13.2134C4.19918 12.8298 4.25558 12.4922 4.22918 12.1838C4.22438 12.1254 4.22158 12.0662 4.21038 12.0102C4.16878 11.803 4.07718 11.609 3.94438 11.4478C3.87038 11.3582 3.83758 11.2194 3.86278 11.1022C3.93198 10.7786 3.88758 10.4302 3.74038 10.1454C3.50598 9.69416 3.03558 9.37736 2.48198 9.29896C2.46038 9.29576 2.43798 9.29336 2.41598 9.29096L11.2696 2.56256C11.6992 2.23616 12.3 2.23576 12.7304 2.56256L21.6 9.30336V20.8558C21.6 21.0426 21.448 21.1946 21.2612 21.1946Z" fill="#A0A0A0"/>
</svg>
