<svg width="20" height="24" viewBox="0 0 20 24" fill="none" xmlns="http://www.w3.org/2000/svg">
<path d="M2.80019 5.75605H8.14395V12.1498H2.80019V5.75605ZM10.2627 5.75605H14.5377V6.82481H10.2627V5.75605ZM10.2627 11.0998H14.5377V12.1686H10.2627V11.0998ZM10.2627 8.41856H14.5377V9.4873H10.2627V8.41856ZM2.80019 13.7998H14.5189V14.8686H2.80019V13.7998ZM2.80019 19.0123H14.5189V20.0811H2.80019V19.0123ZM2.80019 16.3311H14.5189V17.3998H2.80019V16.3311ZM2.5002 0.299805V2.34355H0.137695V23.7561H17.5002V21.7123H19.8627V0.299805H2.5002ZM16.4314 22.7061H1.1877V3.39355H2.5002H3.56895H16.4314V20.6248V21.6936V22.7061ZM18.8127 20.6436H17.5002V2.32481H3.56895V1.36856H18.8127V20.6436Z" fill="#A0A0A0"/>
</svg>
