<svg width="24" height="22" viewBox="0 0 24 22" fill="none" xmlns="http://www.w3.org/2000/svg">
<path d="M0.267578 10.9246C0.267578 11.4067 0.649264 11.698 1.12138 11.698C1.41268 11.698 1.64368 11.5574 1.84459 11.3565L11.6482 2.42682C11.7586 2.31633 11.8792 2.27613 12.0097 2.27613C12.1303 2.27613 12.2408 2.31633 12.3613 2.42682L22.1549 11.3565C22.3658 11.5574 22.5968 11.698 22.878 11.698C23.3501 11.698 23.7319 11.4067 23.7319 10.9246C23.7319 10.6232 23.6215 10.4324 23.4306 10.2617L19.955 7.09756V1.1612C19.955 0.719217 19.6738 0.437988 19.2319 0.437988H17.916C17.4841 0.437988 17.1827 0.719217 17.1827 1.1612V4.57636L13.2051 0.940231C12.8535 0.608731 12.4216 0.448017 11.9997 0.448017C11.5778 0.448017 11.156 0.608731 10.7944 0.940231L0.568907 10.2617C0.388135 10.4324 0.267578 10.6232 0.267578 10.9246ZM3.14034 19.352C3.14034 20.7482 3.98411 21.5618 5.40041 21.5618H9.46845V14.4201C9.46845 13.958 9.77985 13.6567 10.2419 13.6567H13.7877C14.2497 13.6567 14.5511 13.958 14.5511 14.4201V21.5618H18.609C20.0254 21.5618 20.8591 20.7482 20.8591 19.352V11.9993L12.3312 4.31519C12.2207 4.21473 12.1002 4.16455 11.9797 4.16455C11.8691 4.16455 11.7586 4.21473 11.6381 4.32526L3.14034 12.0496V19.352Z" fill="#A0A0A0"/>
</svg>
